<svg width="120" height="40" viewBox="0 0 120 40" fill="none" xmlns="http://www.w3.org/2000/svg">
  <path d="M61.0711 11.5H55.9289V28.5H61.0711V11.5Z" fill="#0ABF53"/>
  <path d="M48.5 11.5H42.5L35 28.5H40.5L42 24.5H49L50.5 28.5H56L48.5 11.5ZM43.5 20.5L45.5 15.5L47.5 20.5H43.5Z" fill="#0ABF53"/>
  <path d="M77.5 11.5H72V13.5C70.5 12 68.5 11 66 11C60.5 11 56 15.5 56 20C56 24.5 60.5 29 66 29C68.5 29 70.5 28 72 26.5V28.5H77.5V11.5ZM67 24.5C64 24.5 61.5 22.5 61.5 20C61.5 17.5 64 15.5 67 15.5C70 15.5 72.5 17.5 72.5 20C72.5 22.5 70 24.5 67 24.5Z" fill="#0ABF53"/>
  <path d="M97 20C97 15.5 93 11 87.5 11C82 11 78 15.5 78 20C78 24.5 82 29 87.5 29C93 29 97 24.5 97 20ZM83.5 20C83.5 17.5 85.5 15.5 88 15.5C90.5 15.5 92.5 17.5 92.5 20C92.5 22.5 90.5 24.5 88 24.5C85.5 24.5 83.5 22.5 83.5 20Z" fill="#0ABF53"/>
  <path d="M106 11C103.5 11 101.5 12 100 13.5V11.5H94.5V28.5H100V20C100 17.5 101.5 16 103.5 16C105.5 16 107 17.5 107 20V28.5H112.5V18.5C112.5 14 109.5 11 106 11Z" fill="#0ABF53"/>
</svg>